<?xml version="1.0" encoding="utf-8"?>
<!-- Generator: Adobe Illustrator 21.0.0, SVG Export Plug-In . SVG Version: 6.00 Build 0)  -->
<svg version="1.1" id="Layer_1" xmlns="https://cors-anywhere.herokuapp.com/http://www.w3.org/2000/svg" xmlns:xlink="https://cors-anywhere.herokuapp.com/http://www.w3.org/1999/xlink" x="0px" y="0px"
	 viewBox="0 0 64 64" style="enable-background:new 0 0 64 64;" xml:space="preserve">
<style type="text/css">
	.st0{fill:#CCCCCC;}
	.st1{fill:#E9EAEB;}
	.st2{fill:none;stroke:#5D4397;stroke-miterlimit:10;}
	.st3{fill:#FFFFFF;stroke:#5D4397;stroke-miterlimit:10;}
	.st4{fill:none;stroke:#5D4397;stroke-width:2;stroke-miterlimit:10;}
	.st5{fill:none;stroke:#BCC0C4;stroke-width:2;stroke-miterlimit:10;}
	.st6{fill:#CCCCCC;stroke:#5D4397;stroke-width:2;stroke-miterlimit:10;}
	.st7{fill:#FFFFFF;stroke:#5D4397;stroke-width:2;stroke-miterlimit:10;}
</style>
<g>
	<path class="st0" d="M-40-10c-3.7,0-11,2-11,6V8.1c0,2.3,1.7,3.9,4,3.9h1v4h12v-4h1c2.3,0,4-1.6,4-3.9V-4C-29-8-36.3-10-40-10z"/>
	<path class="st1" d="M-39.9-39C-54.9-39-67-26.9-67-11.9c0,1.7,0.2,3.4,0.5,5C-64.2-9-59.7-10-57-10h34c2.8,0,7.5,1.1,9.7,3.3
		c0.3-1.7,0.5-3.4,0.5-5.1C-12.8-26.9-24.9-39-39.9-39z"/>
	<path class="st2" d="M-33,12.1c2.3,0,4-1.7,4-4V-4c0-4-7.3-6-11-6c-3.7,0-11,2-11,6V8.1c0,2.3,1.7,4,4,4"/>
	<path class="st3" d="M-40-13c2.8,0,5-2.3,5-5.1v-1.7c0-2.8-2.2-5.1-5-5.1s-5,2.3-5,5.1v1.7C-45-15.3-42.8-13-40-13z"/>
	<path class="st3" d="M-48-27.1c2.8,0,5-2.3,5-5.1v-1.7c0-2.8-2.2-5.1-5-5.1s-5,2.3-5,5.1v1.7C-53-29.4-50.8-27.1-48-27.1z"/>
	<path class="st3" d="M-32-27.1c2.8,0,5-2.3,5-5.1v-1.7c0-2.8-2.2-5.1-5-5.1c-2.8,0-5,2.3-5,5.1v1.7C-37-29.4-34.8-27.1-32-27.1z"/>
	<line class="st2" x1="-34" y1="16" x2="-34" y2="0"/>
	<line class="st2" x1="-46" y1="0" x2="-46" y2="16"/>
	<line class="st2" x1="-63" y1="16" x2="-63" y2="0"/>
	<path class="st3" d="M-57-13.1c-2.8,0-5-2.3-5-5.1v-1.7c0-2.8,2.2-5.1,5-5.1s5,2.3,5,5.1v1.7C-52-15.4-54.2-13.1-57-13.1z"/>
	<path class="st2" d="M-51-8.8c-2.1-0.8-4.4-1.2-6-1.2c-3.7,0-11,2-11,6V8.1c0,2.3,1.7,4,4,4"/>
	<line class="st2" x1="-17" y1="16" x2="-17" y2="0"/>
	<path class="st3" d="M-23-13.1c2.8,0,5-2.3,5-5.1v-1.7c0-2.8-2.2-5.1-5-5.1c-2.8,0-5,2.3-5,5.1v1.7C-28-15.4-25.8-13.1-23-13.1z"/>
	<path class="st2" d="M-29-8.8c2.1-0.8,4.4-1.2,6-1.2c3.7,0,11,2,11,6V8.1c0,2.3-1.7,4-4,4"/>
</g>
<g>
	<path class="st1" d="M12.3,22.1h39.4C49.3,12.3,40.4,4.9,29.8,4.9c-12.4,0-22.4,10-22.4,22.4c0,5.2,1.8,10.1,4.8,13.9V22.1z"/>
	<path class="st1" d="M17,28h-2c-1.7,0-3-1.3-3-3v30c0,1.7,1.3,3,3,3h2V28z"/>
	<line class="st4" x1="51" y1="15" x2="51" y2="9"/>
	<line class="st4" x1="54.8" y1="15.6" x2="57.4" y2="11.1"/>
	<line class="st4" x1="57.7" y1="18.6" x2="62.2" y2="16"/>
	<line class="st4" x1="59" y1="23" x2="64" y2="23"/>
	<circle class="st5" cx="9.5" cy="7.5" r="3.5"/>
	<line class="st5" x1="23" y1="10" x2="23" y2="16"/>
	<line class="st5" x1="26" y1="13" x2="20" y2="13"/>
	<line class="st5" x1="3" y1="24" x2="3" y2="30"/>
	<line class="st5" x1="6" y1="27" x2="0" y2="27"/>
	<line class="st5" x1="3" y1="24" x2="3" y2="30"/>
	<line class="st5" x1="6" y1="27" x2="0" y2="27"/>
	<path class="st1" d="M12,25c0,1.7,1.3,3,3,3h38v-6H15C13.3,22,12,23.3,12,25z"/>
	<path class="st4" d="M53,28v-6H15c-1.7,0-3,1.3-3,3"/>
	<polyline class="st0" points="48.1,28 34,13.9 19.9,28 	"/>
	<polyline class="st4" points="48.1,28 34,13.9 19.9,28 	"/>
	<path class="st1" d="M41,28l-4.9-4.9c-1.4,1.4-2.8,1.4-4.2,0L27,28"/>
	<path class="st4" d="M41,28l-4.9-4.9c-1.4,1.4-2.8,1.4-4.2,0L27,28"/>
	<path class="st4" d="M58,58H15c-1.7,0-3-1.3-3-3V25c0,1.7,1.3,3,3,3h43v21V58z"/>
	<path class="st6" d="M59,48H44.5c-3,0-5.5-2.5-5.5-5.5l0,0c0-3,2.5-5.5,5.5-5.5H59c1.1,0,2,0.9,2,2v7C61,47.1,60.1,48,59,48z"/>
	<circle class="st7" cx="45.5" cy="42.5" r="2.5"/>
</g>
</svg>
