<?xml version="1.0" encoding="utf-8"?>
<!-- Generator: Adobe Illustrator 21.0.0, SVG Export Plug-In . SVG Version: 6.00 Build 0)  -->
<svg version="1.1" id="Layer_1" xmlns="http://www.w3.org/2000/svg" xmlns:xlink="http://www.w3.org/1999/xlink" x="0px" y="0px"
	 viewBox="0 0 64 64" style="enable-background:new 0 0 64 64;" xml:space="preserve">
<style type="text/css">
	.st0{fill:#CCCCCC;}
	.st1{fill:#E9EAEB;}
	.st2{fill:none;stroke:#5D4397;stroke-width:2;stroke-miterlimit:10;}
	.st3{fill:#FFFFFF;stroke:#5D4397;stroke-width:2;stroke-miterlimit:10;}
</style>
<g>
	<path class="st0" d="M32,34c-3.7,0-11,2-11,6v12.1c0,2.3,1.7,3.9,4,3.9h1v4h12v-4h1c2.3,0,4-1.6,4-3.9V40C43,36,35.7,34,32,34z"/>
	<path class="st1" d="M32.1,5C17.1,5,5,17.1,5,32.1c0,1.7,0.2,3.4,0.5,5C7.8,35,12.3,34,15,34h34c2.8,0,7.5,1.1,9.7,3.3
		c0.3-1.7,0.5-3.4,0.5-5.1C59.2,17.1,47.1,5,32.1,5z"/>
	<path class="st2" d="M39,56.1c2.3,0,4-1.7,4-4V40c0-4-7.3-6-11-6s-11,2-11,6v12.1c0,2.3,1.7,4,4,4"/>
	<path class="st3" d="M32,31c2.8,0,5-2.3,5-5.1v-1.7c0-2.8-2.2-5.1-5-5.1s-5,2.3-5,5.1v1.7C27,28.7,29.2,31,32,31z"/>
	<path class="st3" d="M24,16.9c2.8,0,5-2.3,5-5.1v-1.7C29,7.3,26.8,5,24,5s-5,2.3-5,5.1v1.7C19,14.6,21.2,16.9,24,16.9z"/>
	<path class="st3" d="M40,16.9c2.8,0,5-2.3,5-5.1v-1.7C45,7.3,42.8,5,40,5s-5,2.3-5,5.1v1.7C35,14.6,37.2,16.9,40,16.9z"/>
	<line class="st2" x1="38" y1="60" x2="38" y2="44"/>
	<line class="st2" x1="26" y1="44" x2="26" y2="60"/>
	<line class="st2" x1="9" y1="60" x2="9" y2="44"/>
	<path class="st3" d="M15,30.9c-2.8,0-5-2.3-5-5.1v-1.7c0-2.8,2.2-5.1,5-5.1s5,2.3,5,5.1v1.7C20,28.6,17.8,30.9,15,30.9z"/>
	<path class="st2" d="M21,35.2c-2.1-0.8-4.4-1.2-6-1.2c-3.7,0-11,2-11,6v12.1c0,2.3,1.7,4,4,4"/>
	<line class="st2" x1="55" y1="60" x2="55" y2="44"/>
	<path class="st3" d="M49,30.9c2.8,0,5-2.3,5-5.1v-1.7c0-2.8-2.2-5.1-5-5.1s-5,2.3-5,5.1v1.7C44,28.6,46.2,30.9,49,30.9z"/>
	<path class="st2" d="M43,35.2c2.1-0.8,4.4-1.2,6-1.2c3.7,0,11,2,11,6v12.1c0,2.3-1.7,4-4,4"/>
</g>
</svg>
