<?xml version="1.0" encoding="utf-8"?>
<!-- Generator: Adobe Illustrator 21.0.0, SVG Export Plug-In . SVG Version: 6.00 Build 0)  -->
<svg version="1.1" id="Layer_1" xmlns="http://www.w3.org/2000/svg" xmlns:xlink="http://www.w3.org/1999/xlink" x="0px" y="0px"
	 viewBox="0 0 64 64" style="enable-background:new 0 0 64 64;" xml:space="preserve">
<style type="text/css">
	.st0{fill:#E9EAEB;}
	.st1{fill:none;stroke:#5D4397;stroke-width:2;stroke-miterlimit:10;}
	.st2{fill:#FFFFFF;}
	.st3{fill:#FFFFFF;stroke:#5D4397;stroke-width:2;stroke-miterlimit:10;}
	.st4{fill:#CCCCCC;stroke:#5D4397;stroke-width:2;stroke-miterlimit:10;}
	.st5{fill:#CCCCCC;}
	.st6{fill:#E9EAEB;stroke:#5D4397;stroke-width:2;stroke-miterlimit:10;}
</style>
<g>
	<path class="st0" d="M55,28.5C55,43.1,43.1,55,28.5,55S2,38.9,2,28.5C2,13.9,13.9,2,28.5,2S55,13.9,55,28.5z"/>
	<line class="st1" x1="53" y1="49" x2="53" y2="62"/>
	<line class="st1" x1="32" y1="62" x2="32" y2="49"/>
	<rect x="22" y="14" class="st2" width="39" height="32"/>
	<polyline class="st1" points="22,27 22,14 61,14 61,46 22,46 22,38 	"/>
	<path class="st3" d="M11.5,26.8c2.6,0,4.5-2.1,4.5-4.7v-1.6c0-2.6-1.9-4.7-4.5-4.7S7,17.9,7,20.5V22C7,24.6,8.9,26.8,11.5,26.8z"/>
	<path class="st4" d="M32,30c-1.6,0-21.2,0-23,0c-4.7,0-8,1.5-8,6v9c0,2.1,1.9,4,4,4h13V35h9C30,35,32,32.2,32,30z"/>
	<rect x="6" y="36" class="st5" width="12" height="27"/>
	<line class="st1" x1="18" y1="36" x2="18" y2="63"/>
	<line class="st1" x1="12" y1="47" x2="12" y2="63"/>
	<line class="st1" x1="6" y1="36" x2="6" y2="63"/>
	<polyline class="st1" points="26,41 33,41 36,37 42,37 48,27 52,27 55,22 57,22 	"/>
	<line class="st1" x1="29" y1="62" x2="35" y2="62"/>
	<line class="st1" x1="50" y1="62" x2="56" y2="62"/>
	<rect x="20" y="9" class="st6" width="43" height="7"/>
</g>
</svg>
